<?xml version="1.0" encoding="UTF-8" standalone="no"?>
<!-- Created with Inkscape (http://www.inkscape.org/) -->

<svg
   version="1.1"
   id="svg2"
   xml:space="preserve"
   width="666.66669"
   height="666.66669"
   viewBox="0 0 666.66669 666.66669"
   sodipodi:docname="2456048.ai"
   xmlns:inkscape="http://www.inkscape.org/namespaces/inkscape"
   xmlns:sodipodi="http://sodipodi.sourceforge.net/DTD/sodipodi-0.dtd"
   xmlns="http://www.w3.org/2000/svg"
   xmlns:svg="http://www.w3.org/2000/svg"><defs
     id="defs6"><clipPath
       clipPathUnits="userSpaceOnUse"
       id="clipPath18"><path
         d="M 0,500 H 500 V 0 H 0 Z"
         id="path16" /></clipPath><clipPath
       clipPathUnits="userSpaceOnUse"
       id="clipPath30"><path
         d="M 186.11,318.334 H 465.957 V 106.445 H 186.11 Z"
         id="path28" /></clipPath><clipPath
       clipPathUnits="userSpaceOnUse"
       id="clipPath126"><path
         d="m 167.804,256.129 h 27.813 v -60.395 h -27.813 z"
         id="path124" /></clipPath><clipPath
       clipPathUnits="userSpaceOnUse"
       id="clipPath220"><path
         d="m 197.202,177.253 h 146.863 v -7.248 H 197.202 Z"
         id="path218" /></clipPath><clipPath
       clipPathUnits="userSpaceOnUse"
       id="clipPath318"><path
         d="M 201.295,164.334 H 341.534 V 149.398 H 201.295 Z"
         id="path316" /></clipPath><clipPath
       clipPathUnits="userSpaceOnUse"
       id="clipPath322"><path
         d="M 341.534,164.334 H 201.295 v -14.936 h 140.239 z"
         id="path320" /></clipPath><linearGradient
       x1="0"
       y1="0"
       x2="1"
       y2="0"
       gradientUnits="userSpaceOnUse"
       gradientTransform="matrix(0,24.054415,24.054415,0,271.41446,138.65741)"
       spreadMethod="pad"
       id="linearGradient334"><stop
         style="stop-opacity:1;stop-color:#ffffff"
         offset="0"
         id="stop328" /><stop
         style="stop-opacity:0;stop-color:#ffffff"
         offset="0.64926211"
         id="stop330" /><stop
         style="stop-opacity:0;stop-color:#ffffff"
         offset="1"
         id="stop332" /></linearGradient><mask
       maskUnits="userSpaceOnUse"
       x="0"
       y="0"
       width="1"
       height="1"
       id="mask336"><g
         id="g346"><g
           id="g344"><g
             id="g342"><g
               id="g340"><path
                 d="M -32768,32767 H 32767 V -32768 H -32768 Z"
                 style="fill:url(#linearGradient334);stroke:none"
                 id="path338" /></g></g></g></g></mask><linearGradient
       x1="0"
       y1="0"
       x2="1"
       y2="0"
       gradientUnits="userSpaceOnUse"
       gradientTransform="matrix(0,24.054415,24.054415,0,271.41446,138.65741)"
       spreadMethod="pad"
       id="linearGradient354"><stop
         style="stop-opacity:1;stop-color:#ffffff"
         offset="0"
         id="stop348" /><stop
         style="stop-opacity:1;stop-color:#ffffff"
         offset="0.64926211"
         id="stop350" /><stop
         style="stop-opacity:1;stop-color:#ffffff"
         offset="1"
         id="stop352" /></linearGradient><clipPath
       clipPathUnits="userSpaceOnUse"
       id="clipPath400"><path
         d="m 352.934,117.162 h 46.776 v -7.435 h -46.776 z"
         id="path398" /></clipPath><clipPath
       clipPathUnits="userSpaceOnUse"
       id="clipPath420"><path
         d="m 373.015,162.074 h 24.85 v -47.899 h -24.85 z"
         id="path418" /></clipPath><clipPath
       clipPathUnits="userSpaceOnUse"
       id="clipPath472"><path
         d="M 0,500 H 500 V 0 H 0 Z"
         id="path470" /></clipPath></defs><sodipodi:namedview
     id="namedview4"
     pagecolor="#ffffff"
     bordercolor="#666666"
     borderopacity="1.0"
     inkscape:pageshadow="2"
     inkscape:pageopacity="0.0"
     inkscape:pagecheckerboard="0" /><g
     id="g8"
     inkscape:groupmode="layer"
     inkscape:label="2456048"
     transform="matrix(1.3333333,0,0,-1.3333333,0,666.66667)"><path
       d="M 0,0 H 500 V 500 H 0 Z"
       style="fill:#ffffff;fill-opacity:1;fill-rule:nonzero;stroke:none"
       id="path10" /><g
       id="g12"><g
         id="g14"
         clip-path="url(#clipPath18)"><g
           id="g20"
           transform="translate(453.0586,106.4443)"><path
             d="m 0,0 c 6.95,0 12.624,5.573 12.73,12.524 0.533,34.645 3.324,85.747 -61.921,99.879 -52.799,11.437 -21.495,105.268 -163.689,99.206 -102.073,-4.352 -74.955,-90.387 -154.32,-97.552 -52.81,-4.768 -53.266,-71.559 -51.237,-102.162 C -417.993,5.2 -412.44,0 -405.731,0 Z"
             style="fill:#b5dfea;fill-opacity:1;fill-rule:nonzero;stroke:none"
             id="path22" /></g><g
           id="g24"><g
             id="g26" /><g
             id="g38"><g
               clip-path="url(#clipPath30)"
               opacity="0.550003"
               id="g36"><g
                 transform="translate(403.8672,218.8477)"
                 id="g34"><path
                   d="m 0,0 c -52.799,11.437 -21.494,105.268 -163.688,99.206 -24.277,-1.036 -41.237,-6.697 -54.069,-14.813 4.322,0.565 8.911,0.965 13.8,1.173 142.195,6.063 110.891,-87.768 163.689,-99.205 64.55,-13.982 62.506,-64.147 61.941,-98.764 h 27.518 c 6.951,0 12.624,5.573 12.731,12.524 C 62.454,-65.234 65.245,-14.133 0,0"
                   style="fill:#90cedd;fill-opacity:1;fill-rule:nonzero;stroke:none"
                   id="path32" /></g></g></g></g><path
           d="m 177.771,336.201 h 2.245 V 500 h -2.245 z"
           style="fill:#79c9e8;fill-opacity:1;fill-rule:nonzero;stroke:none"
           id="path40" /><path
           d="m 338.744,311.039 h 2.245 V 500 h -2.245 z"
           style="fill:#79c9e8;fill-opacity:1;fill-rule:nonzero;stroke:none"
           id="path42" /><g
           id="g44"
           transform="translate(340.7744,322.0537)"><path
             d="m 0,0 -166.947,19.486 c -7.135,0.833 -13.594,-4.276 -14.427,-11.41 l -12.46,-106.755 c -0.833,-7.134 4.276,-13.593 11.411,-14.426 l 166.946,-19.487 c 7.135,-0.832 13.594,4.277 14.426,11.411 L 11.41,-14.426 C 12.243,-7.292 7.134,-0.833 0,0"
             style="fill:#d7f0f9;fill-opacity:1;fill-rule:nonzero;stroke:none"
             id="path46" /></g><g
           id="g48"
           transform="translate(350.9512,297.0605)"><path
             d="m 0,0 1.233,10.567 c 0.833,7.134 -4.276,13.594 -11.41,14.426 l -166.947,19.486 c -7.135,0.833 -13.593,-4.276 -14.426,-11.41 l -1.234,-10.567 z"
             style="fill:#0582c1;fill-opacity:1;fill-rule:nonzero;stroke:none"
             id="path50" /></g><g
           id="g52"
           transform="translate(204.5845,252.1323)"><path
             d="m 0,0 2.73,23.39 c 0.019,0.162 -0.199,0.233 -0.279,0.091 L -10.053,1.418 c -0.22,-0.389 0.028,-0.878 0.472,-0.93 l 8.887,-1.037 C -0.351,-0.589 -0.04,-0.343 0,0 M -19.407,2.789 1.756,40.075 c 1.355,2.389 4.01,3.735 6.738,3.416 3.75,-0.438 6.435,-3.833 5.997,-7.583 L 10.089,-1.808 10.277,-1.83 c 2.599,-0.303 4.459,-2.655 4.156,-5.253 -0.303,-2.599 -2.656,-4.459 -5.254,-4.157 l -0.188,0.023 -0.802,-6.869 c -0.328,-2.806 -2.868,-4.816 -5.674,-4.488 -2.806,0.327 -4.815,2.868 -4.488,5.674 l 0.802,6.869 -15.235,1.778 c -2.603,0.304 -4.467,2.66 -4.163,5.263 l 0.404,3.461 c 0.095,0.816 0.353,1.604 0.758,2.318"
             style="fill:#79c9e8;fill-opacity:1;fill-rule:nonzero;stroke:none"
             id="path54" /></g><g
           id="g56"
           transform="translate(297.9814,241.2305)"><path
             d="m 0,0 2.729,23.39 c 0.02,0.162 -0.198,0.234 -0.279,0.091 L -10.053,1.419 c -0.22,-0.39 0.028,-0.878 0.472,-0.931 l 8.887,-1.037 C -0.352,-0.589 -0.04,-0.343 0,0 M -19.407,2.789 1.755,40.076 c 1.356,2.388 4.01,3.734 6.738,3.415 3.75,-0.437 6.436,-3.832 5.998,-7.582 l -4.402,-37.717 0.188,-0.021 c 2.598,-0.304 4.459,-2.655 4.156,-5.254 -0.303,-2.599 -2.656,-4.459 -5.254,-4.156 l -0.189,0.022 -0.802,-6.869 c -0.327,-2.806 -2.867,-4.815 -5.673,-4.487 -2.806,0.327 -4.816,2.867 -4.488,5.674 l 0.802,6.869 -15.235,1.777 c -2.604,0.305 -4.467,2.66 -4.163,5.264 l 0.404,3.461 c 0.095,0.815 0.353,1.603 0.758,2.317"
             style="fill:#79c9e8;fill-opacity:1;fill-rule:nonzero;stroke:none"
             id="path58" /></g><g
           id="g60"
           transform="translate(242.8638,240.7393)"><path
             d="m 0,0 c -0.549,-4.705 1.312,-6.733 4.605,-7.118 3.294,-0.385 5.572,1.161 6.122,5.866 l 4.151,35.567 c 0.549,4.705 -1.312,6.734 -4.605,7.119 -3.294,0.384 -5.572,-1.162 -6.122,-5.867 z m -6.275,36.117 c 1.23,10.538 7.483,15.912 17.646,14.726 10.162,-1.186 15.01,-7.856 13.781,-18.395 L 21.154,-1.801 C 19.923,-12.34 13.669,-17.714 3.507,-16.528 c -10.162,1.186 -15.01,7.856 -13.78,18.395 z"
             style="fill:#79c9e8;fill-opacity:1;fill-rule:nonzero;stroke:none"
             id="path62" /></g><g
           id="g64"
           transform="translate(177.8481,326.7876)"><path
             d="m 0,0 c -0.224,-1.917 -1.959,-3.291 -3.877,-3.067 -1.917,0.224 -3.29,1.96 -3.066,3.877 0.223,1.918 1.959,3.291 3.877,3.067 C -1.149,3.653 0.224,1.917 0,0"
             style="fill:#ffffff;fill-opacity:1;fill-rule:nonzero;stroke:none"
             id="path66" /></g><g
           id="g68"
           transform="translate(194.5942,324.833)"><path
             d="m 0,0 c -0.224,-1.917 -1.96,-3.291 -3.877,-3.067 -1.917,0.224 -3.29,1.96 -3.067,3.877 0.224,1.918 1.96,3.291 3.877,3.067 C -1.149,3.653 0.224,1.917 0,0"
             style="fill:#79c9e8;fill-opacity:1;fill-rule:nonzero;stroke:none"
             id="path70" /></g><g
           id="g72"
           transform="translate(211.9526,322.8066)"><path
             d="m 0,0 c -0.224,-1.917 -1.959,-3.29 -3.877,-3.066 -1.917,0.223 -3.29,1.959 -3.066,3.877 0.223,1.917 1.959,3.29 3.877,3.066 C -1.149,3.653 0.224,1.917 0,0"
             style="fill:#ffbf4d;fill-opacity:1;fill-rule:nonzero;stroke:none"
             id="path74" /></g><g
           id="g76"
           transform="translate(144.7935,201.208)"><path
             d="m 0,0 c 0,0 -2.255,-9.997 -1.879,-20.221 0.336,-9.151 -0.752,-69.309 -0.752,-69.309 h 7.348 c 0,0 10.46,47.116 10.851,50.837 0.39,3.72 5.652,40.929 5.652,40.929 z"
             style="fill:#00668e;fill-opacity:1;fill-rule:nonzero;stroke:none"
             id="path78" /></g><g
           id="g80"
           transform="translate(149.6792,203.9521)"><path
             d="m 0,0 c 0,0 1.691,-12.854 4.567,-21.987 2.875,-9.133 17.007,-70.287 17.007,-70.287 h 7.348 c 0,0 -1.353,47.116 -1.86,50.836 -0.508,3.721 -4.229,40.93 -4.229,40.93 z"
             style="fill:#0582c1;fill-opacity:1;fill-rule:nonzero;stroke:none"
             id="path82" /></g><g
           id="g84"
           transform="translate(171.853,111.6895)"><path
             d="m 0,0 v -5.128 h 13.988 c 0.794,0 1.105,1.029 0.443,1.47 C 12.386,-2.296 9.109,-0.419 6.063,0 Z"
             style="fill:#0582c1;fill-opacity:1;fill-rule:nonzero;stroke:none"
             id="path86" /></g><g
           id="g88"
           transform="translate(142.5366,111.6895)"><path
             d="m 0,0 v -5.128 h 13.988 c 0.794,0 1.105,1.029 0.444,1.47 C 12.386,-2.296 9.109,-0.419 6.063,0 Z"
             style="fill:#0582c1;fill-opacity:1;fill-rule:nonzero;stroke:none"
             id="path90" /></g><g
           id="g92"
           transform="translate(167.7744,263.7451)"><path
             d="m 0,0 c 0,0 4.811,7.305 -0.713,8.018 -4.241,0.547 -5.986,-0.716 -5.986,-0.716 0,0 -4.883,0.538 -7.555,-1.779 -1.832,-1.587 -8.553,-13.898 2.316,-18.352 10.869,-4.454 8.552,6.949 8.552,6.949 z"
             style="fill:#00668e;fill-opacity:1;fill-rule:nonzero;stroke:none"
             id="path94" /></g><g
           id="g96"
           transform="translate(167.0615,271.7632)"><path
             d="m 0,0 c -4.241,0.547 -5.986,-0.716 -5.986,-0.716 0,0 -4.883,0.538 -7.556,-1.779 -1.831,-1.587 -8.552,-13.898 2.317,-18.352 5.109,-2.094 7.304,-0.683 8.196,1.399 -10.312,-2.901 -11.43,9.528 -9.73,13.065 1.728,3.593 5.875,1.935 5.875,1.935 1.621,4.082 6.906,3.639 9.085,3.322 C 1.804,-0.559 1.115,-0.144 0,0"
             style="fill:#05556d;fill-opacity:1;fill-rule:nonzero;stroke:none"
             id="path98" /></g><g
           id="g100"
           transform="translate(161.0034,260.1816)"><path
             d="m 0,0 c 0,0 -1.425,1.425 -2.495,0 -1.068,-1.426 -0.356,-4.633 1.426,-4.811 0,0 -0.535,-4.633 -4.098,-4.455 v -3.741 h 8.375 v 2.851 c 0,0 5.167,2.138 4.988,6.414 C 8.018,0.534 6.771,3.563 6.771,3.563 6.771,3.563 3.92,0.356 0,0"
             style="fill:#f98d3d;fill-opacity:1;fill-rule:nonzero;stroke:none"
             id="path102" /></g><g
           id="g104"
           transform="translate(162.2852,248.8271)"><path
             d="m 0,0 c 0.829,-0.345 0.684,-0.868 0.721,-1.652 h 1.205 v 2.85 c 0,0 -2.03,-0.645 -5.002,1.049 0,0 1.73,-1.686 3.076,-2.247"
             style="fill:#ed701b;fill-opacity:1;fill-rule:nonzero;stroke:none"
             id="path106" /></g><g
           id="g108"
           transform="translate(163.999,267.001)"><path
             d="m 0,0 c 0,0 -4.341,1.729 -4.848,0.432 -0.332,-0.849 0.512,-1.58 1.671,-2.319 l -1.022,-0.168 c -0.227,-0.037 -0.309,-0.327 -0.13,-0.472 0.285,-0.23 1.072,-0.385 2.713,-0.442 z"
             style="fill:#f98d3d;fill-opacity:1;fill-rule:nonzero;stroke:none"
             id="path110" /></g><g
           id="g112"
           transform="translate(144.3398,206.46)"><path
             d="M 0,0 -1.473,3.218 -6.164,13.469 1.62,22.187 0.221,3.056 Z M 50.655,49.669 C 42.378,55.803 19.771,60.707 19.771,60.707 l -1.862,-3.394 c 0,0 20.523,-7.954 19.168,-9.139 -0.796,-0.699 -10.825,-5.295 -14.22,-6.841 -0.729,-0.331 -1.524,-0.493 -2.334,-0.479 l -10.391,0.059 c 0,0 -7.496,0.892 -13.394,-5.884 -5.273,-6.067 -14.235,-20.117 -14.235,-20.117 l 15.096,-22.202 1.672,-2.452 0.015,0.029 -0.015,-0.206 c 0,0 0.537,-0.059 1.487,-0.147 4.853,-0.45 20.406,-1.679 28.638,0.066 l 0.229,0.052 -0.391,36.421 c 13.144,10.405 19.418,18.439 21.664,20.965 0.59,0.669 0.479,1.693 -0.243,2.231"
             style="fill:#ffbf4d;fill-opacity:1;fill-rule:nonzero;stroke:none"
             id="path114" /></g><g
           id="g116"
           transform="translate(142.8667,209.6777)"><path
             d="m 0,0 1.473,-3.218 -0.714,-9.713 -0.015,-0.029 -1.672,2.452 z"
             style="fill:#efaa3a;fill-opacity:1;fill-rule:nonzero;stroke:none"
             id="path118" /></g><g
           id="g120"><g
             id="g122" /><g
             id="g134"><g
               clip-path="url(#clipPath126)"
               opacity="0.289993"
               id="g132"><g
                 transform="translate(170.0625,234.2422)"
                 id="g130"><path
                   d="m 0,0 c -1.398,-1.016 -1.044,-10.023 -1.39,-15.655 -0.578,-9.431 -1.141,-17.592 -0.725,-22.854 2.13,0.141 4.113,0.371 5.788,0.727 l 0.229,0.052 -0.391,36.42 c 13.145,10.406 19.419,18.439 21.665,20.965 0.589,0.67 0.478,1.694 -0.243,2.232 C 24.933,21.887 14.542,10.56 0,0"
                   style="fill:#f98d2b;fill-opacity:1;fill-rule:nonzero;stroke:none"
                   id="path128" /></g></g></g></g><g
           id="g136"
           transform="translate(176.7407,162.5146)"><path
             d="m 0,0 c -0.366,2.685 -2.405,22.804 -3.513,33.801 l -5.28,-0.582 c 0,0 7.703,-63.332 8.21,-84.056 H 1.86 C 1.86,-50.837 0.507,-3.721 0,0"
             style="fill:#00668e;fill-opacity:1;fill-rule:nonzero;stroke:none"
             id="path138" /></g><g
           id="g140"
           transform="translate(142.8813,259.1426)"><path
             d="m 0,0 -1.592,2.855 c 0.798,1.505 1.254,3.219 1.254,5.041 0,5.954 -4.827,10.781 -10.781,10.781 -5.955,0 -10.781,-4.827 -10.781,-10.781 0,-5.955 4.826,-10.782 10.781,-10.782 2.997,0 5.707,1.225 7.661,3.2 z"
             style="fill:#0582c1;fill-opacity:1;fill-rule:nonzero;stroke:none"
             id="path142" /></g><g
           id="g144"
           transform="translate(126.1538,268.0122)"><path
             d="m 0,0 h 0.42 v -1.503 c 0,-0.46 0.137,-0.658 0.46,-0.658 0.253,0 0.43,0.127 0.663,0.415 V 0 H 1.958 V -2.459 H 1.614 L 1.579,-2.075 H 1.563 C 1.336,-2.343 1.093,-2.52 0.754,-2.52 0.232,-2.52 0,-2.186 0,-1.559 Z"
             style="fill:#ffffff;fill-opacity:1;fill-rule:nonzero;stroke:none"
             id="path146" /></g><g
           id="g148"
           transform="translate(130.4639,265.8413)"><path
             d="m 0,0 c 0.405,0 0.704,0.369 0.704,0.977 0,0.541 -0.183,0.905 -0.648,0.905 -0.208,0 -0.415,-0.116 -0.658,-0.333 V 0.258 C -0.379,0.071 -0.162,0 0,0 m -0.602,-0.496 v -0.83 h -0.416 v 3.497 h 0.345 l 0.035,-0.283 h 0.015 c 0.223,0.187 0.496,0.343 0.785,0.343 0.632,0 0.971,-0.49 0.971,-1.254 0,-0.835 -0.501,-1.326 -1.062,-1.326 -0.228,0 -0.455,0.106 -0.684,0.284 z"
             style="fill:#ffffff;fill-opacity:1;fill-rule:nonzero;stroke:none"
             id="path150" /></g><g
           id="g152"
           transform="translate(132.6938,266.1099)"><path
             d="m 0,0 c 0.212,-0.172 0.43,-0.294 0.724,-0.294 0.323,0 0.485,0.172 0.485,0.385 0,0.253 -0.293,0.364 -0.562,0.465 -0.349,0.127 -0.733,0.294 -0.733,0.709 0,0.395 0.314,0.698 0.845,0.698 0.309,0 0.577,-0.127 0.764,-0.278 L 1.326,1.422 C 1.159,1.548 0.982,1.639 0.764,1.639 0.456,1.639 0.314,1.472 0.314,1.285 0.314,1.058 0.582,0.966 0.86,0.86 1.214,0.729 1.609,0.582 1.609,0.116 c 0,-0.399 -0.319,-0.734 -0.901,-0.734 -0.349,0 -0.683,0.147 -0.916,0.34 z"
             style="fill:#ffffff;fill-opacity:1;fill-rule:nonzero;stroke:none"
             id="path154" /></g><g
           id="g156"
           transform="translate(135.6025,266.1294)"><path
             d="m 0,0 c 0.162,0 0.298,-0.131 0.298,-0.324 0,-0.181 -0.136,-0.313 -0.298,-0.313 -0.167,0 -0.304,0.132 -0.304,0.313 C -0.304,-0.131 -0.167,0 0,0"
             style="fill:#ffffff;fill-opacity:1;fill-rule:nonzero;stroke:none"
             id="path158" /></g><g
           id="g160"
           transform="translate(137.3677,266.1294)"><path
             d="m 0,0 c 0.162,0 0.298,-0.131 0.298,-0.324 0,-0.181 -0.136,-0.313 -0.298,-0.313 -0.167,0 -0.304,0.132 -0.304,0.313 C -0.304,-0.131 -0.167,0 0,0"
             style="fill:#ffffff;fill-opacity:1;fill-rule:nonzero;stroke:none"
             id="path162" /></g><g
           id="g164"
           transform="translate(101.5449,129.5059)"><path
             d="m 0,0 c 0,0 -2.265,2.115 -0.745,10.139 1.52,8.024 5.376,15.73 3.485,24.434 -1.892,8.706 -16.725,30.656 -16.775,32.115 -0.05,1.459 -4.576,-25.535 3.095,-36.168 7.67,-10.634 8.593,-14.324 8.253,-19.916 -0.341,-5.592 0.079,-10.095 0.92,-11.395 z"
             style="fill:#79c9e8;fill-opacity:1;fill-rule:nonzero;stroke:none"
             id="path166" /></g><g
           id="g168"
           transform="translate(100.1411,145.6445)"><path
             d="m 0,0 c -0.892,-3.58 -1.43,-12.555 -0.005,-14.703 0.133,-0.201 0.324,-0.087 0.562,0.284 -0.434,1.483 -0.719,4.084 0.102,8.419 1.52,8.024 5.376,15.73 3.485,24.435 -1.892,8.706 -16.726,30.655 -16.775,32.115 0,0 2.235,-18.288 9.763,-30.875 C 2.521,10.663 0.892,3.579 0,0"
             style="fill:#49b4d6;fill-opacity:1;fill-rule:nonzero;stroke:none"
             id="path170" /></g><g
           id="g172"
           transform="translate(104.25,130.0625)"><path
             d="m 0,0 c 0,0 -4.357,10.88 3.028,20.301 7.385,9.42 19.196,21.515 19.431,26.307 0,0 3.036,-22.751 -6.577,-29.191 C 6.269,10.978 -0.473,9.95 1.194,0.041 Z"
             style="fill:#79c9e8;fill-opacity:1;fill-rule:nonzero;stroke:none"
             id="path174" /></g><g
           id="g176"
           transform="translate(114.6255,152.0537)"><path
             d="m 0,0 c -10.719,-7.802 -11.595,-16.789 -9.932,-20.957 0.13,-0.324 0.374,-0.522 0.698,-0.628 -1.437,9.564 5.249,10.652 14.74,17.011 9.613,6.44 6.578,29.191 6.578,29.191 C 12.084,24.617 10.719,7.802 0,0"
             style="fill:#49b4d6;fill-opacity:1;fill-rule:nonzero;stroke:none"
             id="path178" /></g><g
           id="g180"
           transform="translate(97.083,129.8184)"><path
             d="m 0,0 c 0,0 1.398,5.761 0.654,11.98 -0.743,6.22 -7.241,9.719 -13.311,16.289 -3.124,3.379 -4.048,21.254 -2.111,22.915 0,0 -10.718,-12.989 -9.065,-22.499 1.653,-9.511 19.138,-15.691 20.756,-20.287 1.619,-4.594 1.485,-8.453 1.485,-8.453 z"
             style="fill:#79c9e8;fill-opacity:1;fill-rule:nonzero;stroke:none"
             id="path182" /></g><g
           id="g184"
           transform="translate(78.6924,175.8896)"><path
             d="m 0,0 c -3.542,-9.593 0.089,-21.211 11.856,-28.427 8.664,-5.313 5.905,-16.36 5.905,-16.36 l 1.415,4.358 c 0.125,1.885 0.139,4.079 -0.131,6.338 -0.744,6.22 -7.241,9.719 -13.312,16.288 C 2.721,-14.543 1.755,2.195 3.428,4.87 2.937,4.252 1.55,2.455 0,0"
             style="fill:#49b4d6;fill-opacity:1;fill-rule:nonzero;stroke:none"
             id="path186" /></g><g
           id="g188"
           transform="translate(82.1201,180.7598)"><path
             d="M 0,0 C 0.122,0.153 0.195,0.242 0.195,0.242 0.126,0.184 0.062,0.099 0,0"
             style="fill:#49b4d6;fill-opacity:1;fill-rule:nonzero;stroke:none"
             id="path190" /></g><g
           id="g192"
           transform="translate(106.4927,130.5381)"><path
             d="M 0,0 C 0,0 2.512,9.32 8.725,10.575 14.938,11.83 22.072,21.011 22.458,22.812 22.458,22.812 21.41,5.497 0,0"
             style="fill:#79c9e8;fill-opacity:1;fill-rule:nonzero;stroke:none"
             id="path194" /></g><g
           id="g196"
           transform="translate(114.8628,138.0322)"><path
             d="m 0,0 c -3.807,-1.903 -5.39,-4.464 -5.952,-6.788 19.062,6.13 20.04,22.105 20.04,22.105 C 14.012,14.961 13.664,14.311 13.119,13.496 11.25,10.221 6.724,3.362 0,0"
             style="fill:#49b4d6;fill-opacity:1;fill-rule:nonzero;stroke:none"
             id="path198" /></g><g
           id="g200"
           transform="translate(119.937,133.9697)"><path
             d="m 0,0 h -32.495 l 3.859,-24.27 c 0.293,-1.84 1.88,-3.196 3.744,-3.196 h 17.289 c 1.864,0 3.452,1.356 3.744,3.196 z"
             style="fill:#ffbf4d;fill-opacity:1;fill-rule:nonzero;stroke:none"
             id="path202" /></g><g
           id="g204"
           transform="translate(119.2988,129.9551)"><path
             d="M 0,0 0.638,4.015 H -31.856 L -31.218,0 Z"
             style="fill:#ff9f50;fill-opacity:1;fill-rule:nonzero;stroke:none"
             id="path206" /></g><g
           id="g208"
           transform="translate(112.0649,133.9697)"><path
             d="m 0,0 -3.859,-24.27 c -0.293,-1.84 -1.88,-3.196 -3.744,-3.196 H 0.27 c 1.863,0 3.451,1.356 3.743,3.196 L 7.872,0 Z"
             style="fill:#ff9f50;fill-opacity:1;fill-rule:nonzero;stroke:none"
             id="path210" /></g><path
           d="M 344.065,147.393 H 197.202 v 29.86 h 146.863 z"
           style="fill:#ffbf4d;fill-opacity:1;fill-rule:nonzero;stroke:none"
           id="path212" /><g
           id="g214"><g
             id="g216" /><g
             id="g226"><g
               clip-path="url(#clipPath220)"
               opacity="0.289993"
               id="g224"><path
                 d="M 344.065,170.005 H 197.202 v 7.248 h 146.863 z"
                 style="fill:#f98d2b;fill-opacity:1;fill-rule:nonzero;stroke:none"
                 id="path222" /></g></g></g><g
           id="g228"
           transform="translate(209.9717,177.2529)"><path
             d="M 0,0 H 13.404 L 9.812,-7.251 H -3.6 Z"
             style="fill:#f77e2d;fill-opacity:1;fill-rule:nonzero;stroke:none"
             id="path230" /></g><g
           id="g232"
           transform="translate(240.1709,177.2529)"><path
             d="M 0,0 H 13.404 L 9.812,-7.251 H -3.593 Z"
             style="fill:#f77e2d;fill-opacity:1;fill-rule:nonzero;stroke:none"
             id="path234" /></g><g
           id="g236"
           transform="translate(270.3701,177.2529)"><path
             d="M 0,0 H 13.404 L 9.812,-7.251 H -3.593 Z"
             style="fill:#f77e2d;fill-opacity:1;fill-rule:nonzero;stroke:none"
             id="path238" /></g><g
           id="g240"
           transform="translate(300.5693,177.2529)"><path
             d="M 0,0 H 13.397 L 9.805,-7.251 H -3.593 Z"
             style="fill:#f77e2d;fill-opacity:1;fill-rule:nonzero;stroke:none"
             id="path242" /></g><g
           id="g244"
           transform="translate(344.0654,177.2529)"><path
             d="m 0,0 v -0.202 l -3.499,-7.049 h -13.39 L -13.296,0 Z"
             style="fill:#f77e2d;fill-opacity:1;fill-rule:nonzero;stroke:none"
             id="path246" /></g><path
           d="m 225.837,147.39 h -10.353 v -40.828 h 10.353 z"
           style="fill:#79c9e8;fill-opacity:1;fill-rule:nonzero;stroke:none"
           id="path248" /><path
           d="m 225.837,147.39 h -2.352 v -40.828 h 2.352 z"
           style="fill:#49b4d6;fill-opacity:1;fill-rule:nonzero;stroke:none"
           id="path250" /><path
           d="m 326.588,147.39 h -10.353 v -40.828 h 10.353 z"
           style="fill:#79c9e8;fill-opacity:1;fill-rule:nonzero;stroke:none"
           id="path252" /><path
           d="m 326.588,147.39 h -3.061 v -40.828 h 3.061 z"
           style="fill:#49b4d6;fill-opacity:1;fill-rule:nonzero;stroke:none"
           id="path254" /><path
           d="m 225.837,147.422 h -10.353 v -5.142 h 10.353 z"
           style="fill:#49b4d6;fill-opacity:1;fill-rule:nonzero;stroke:none"
           id="path256" /><path
           d="m 326.588,147.422 h -10.353 v -5.142 h 10.353 z"
           style="fill:#49b4d6;fill-opacity:1;fill-rule:nonzero;stroke:none"
           id="path258" /><path
           d="m 225.837,177.282 h -10.353 v 4.636 h 10.353 z"
           style="fill:#79c9e8;fill-opacity:1;fill-rule:nonzero;stroke:none"
           id="path260" /><path
           d="m 225.837,177.282 h -2.352 v 4.636 h 2.352 z"
           style="fill:#49b4d6;fill-opacity:1;fill-rule:nonzero;stroke:none"
           id="path262" /><path
           d="m 326.588,177.282 h -10.353 v 4.636 h 10.353 z"
           style="fill:#79c9e8;fill-opacity:1;fill-rule:nonzero;stroke:none"
           id="path264" /><path
           d="m 326.588,177.282 h -3.061 v 4.636 h 3.061 z"
           style="fill:#49b4d6;fill-opacity:1;fill-rule:nonzero;stroke:none"
           id="path266" /><path
           d="m 225.837,177.278 h -10.353 v 0.584 h 10.353 z"
           style="fill:#49b4d6;fill-opacity:1;fill-rule:nonzero;stroke:none"
           id="path268" /><path
           d="m 326.588,177.278 h -10.353 v 0.584 h 10.353 z"
           style="fill:#49b4d6;fill-opacity:1;fill-rule:nonzero;stroke:none"
           id="path270" /><g
           id="g272"
           transform="translate(223.376,177.2529)"><path
             d="m 0,0 -14.811,-29.86 h -11.363 v 4.119 L -13.404,0 Z"
             style="fill:#0582c1;fill-opacity:1;fill-rule:nonzero;stroke:none"
             id="path274" /></g><g
           id="g276"
           transform="translate(240.1709,177.2529)"><path
             d="M 0,0 -14.811,-29.86 H -1.407 L 13.404,0 Z"
             style="fill:#0582c1;fill-opacity:1;fill-rule:nonzero;stroke:none"
             id="path278" /></g><g
           id="g280"
           transform="translate(283.7744,177.2529)"><path
             d="M 0,0 -14.811,-29.86 H -28.215 L -13.404,0 Z"
             style="fill:#0582c1;fill-opacity:1;fill-rule:nonzero;stroke:none"
             id="path282" /></g><g
           id="g284"
           transform="translate(313.9668,177.2529)"><path
             d="M 0,0 -14.804,-29.86 H -28.208 L -13.397,0 Z"
             style="fill:#0582c1;fill-opacity:1;fill-rule:nonzero;stroke:none"
             id="path286" /></g><g
           id="g288"
           transform="translate(330.7695,177.2529)"><path
             d="m 0,0 -14.812,-29.86 h 13.398 l 14.71,29.658 z"
             style="fill:#0582c1;fill-opacity:1;fill-rule:nonzero;stroke:none"
             id="path290" /></g><g
           id="g292"
           transform="translate(223.376,177.2529)"><path
             d="M 0,0 -3.593,-7.251 H -17.004 L -13.404,0 Z"
             style="fill:#00668e;fill-opacity:1;fill-rule:nonzero;stroke:none"
             id="path294" /></g><g
           id="g296"
           transform="translate(253.5752,177.2529)"><path
             d="M 0,0 -3.593,-7.251 H -16.997 L -13.404,0 Z"
             style="fill:#00668e;fill-opacity:1;fill-rule:nonzero;stroke:none"
             id="path298" /></g><g
           id="g300"
           transform="translate(283.7744,177.2529)"><path
             d="M 0,0 -3.593,-7.251 H -16.997 L -13.404,0 Z"
             style="fill:#00668e;fill-opacity:1;fill-rule:nonzero;stroke:none"
             id="path302" /></g><g
           id="g304"
           transform="translate(313.9668,177.2529)"><path
             d="M 0,0 -3.593,-7.251 H -16.99 L -13.397,0 Z"
             style="fill:#00668e;fill-opacity:1;fill-rule:nonzero;stroke:none"
             id="path306" /></g><g
           id="g308"
           transform="translate(344.0654,177.0508)"><path
             d="m 0,0 -3.499,-7.049 h -13.39 l 3.593,7.251 z"
             style="fill:#00668e;fill-opacity:1;fill-rule:nonzero;stroke:none"
             id="path310" /></g><g
           id="g312"><g
             id="g314" /><g
             id="g372"><g
               clip-path="url(#clipPath318)"
               opacity="0.550003"
               id="g370"><g
                 id="g368"><g
                   clip-path="url(#clipPath322)"
                   id="g366"><g
                     id="g364"><g
                       id="g356" /><g
                       mask="url(#mask336)"
                       id="g362"><g
                         id="g360"><path
                           d="M 341.534,164.334 H 201.295 v -14.936 h 140.239 z"
                           style="fill:url(#linearGradient354);stroke:none"
                           id="path358" /></g></g></g></g></g></g></g></g><g
           id="g374"
           transform="translate(229.6211,188.3984)"><path
             d="m 0,0 c 0,5.098 -4.133,9.23 -9.231,9.23 -5.098,0 -9.23,-4.132 -9.23,-9.23 0,-5.099 4.132,-9.231 9.23,-9.231 C -4.133,-9.231 0,-5.099 0,0"
             style="fill:#ffbf4d;fill-opacity:1;fill-rule:nonzero;stroke:none"
             id="path376" /></g><g
           id="g378"
           transform="translate(224.5737,188.3984)"><path
             d="m 0,0 c 0,2.31 -1.873,4.183 -4.184,4.183 -2.31,0 -4.183,-1.873 -4.183,-4.183 0,-2.311 1.873,-4.184 4.183,-4.184 C -1.873,-4.184 0,-2.311 0,0"
             style="fill:#0582c1;fill-opacity:1;fill-rule:nonzero;stroke:none"
             id="path380" /></g><g
           id="g382"
           transform="translate(330.5811,188.3984)"><path
             d="m 0,0 c 0,5.098 -4.132,9.23 -9.23,9.23 -5.098,0 -9.231,-4.132 -9.231,-9.23 0,-5.099 4.133,-9.231 9.231,-9.231 C -4.132,-9.231 0,-5.099 0,0"
             style="fill:#ffbf4d;fill-opacity:1;fill-rule:nonzero;stroke:none"
             id="path384" /></g><g
           id="g386"
           transform="translate(325.5342,188.3984)"><path
             d="m 0,0 c 0,2.31 -1.873,4.183 -4.184,4.183 -2.31,0 -4.182,-1.873 -4.182,-4.183 0,-2.311 1.872,-4.184 4.182,-4.184 C -1.873,-4.184 0,-2.311 0,0"
             style="fill:#0582c1;fill-opacity:1;fill-rule:nonzero;stroke:none"
             id="path388" /></g><g
           id="g390"
           transform="translate(399.7051,109.7256)"><path
             d="m 0,0 h -46.773 l 7.154,17.343 v 0.011 l 2.878,6.997 0.793,1.919 1.292,3.122 0.263,0.635 2.878,6.998 0.529,1.273 5.099,12.381 c 0.92,2.231 4.081,2.231 5.001,0 l 5.099,-12.381 0.529,-1.273 2.877,-6.998 0.265,-0.635 1.292,-3.122 0.792,-1.919 2.878,-6.997 v -0.011 z"
             style="fill:#ffbf4d;fill-opacity:1;fill-rule:nonzero;stroke:none"
             id="path392" /></g><g
           id="g394"><g
             id="g396" /><g
             id="g408"><g
               clip-path="url(#clipPath400)"
               opacity="0.289993"
               id="g406"><g
                 transform="translate(355.998,117.1621)"
                 id="g404"><path
                   d="M 0,0 -3.064,-7.436 H 43.712 L 40.647,0 Z"
                   style="fill:#f98d2b;fill-opacity:1;fill-rule:nonzero;stroke:none"
                   id="path402" /></g></g></g></g><path
           d="m 402.766,114.172 h -53.571 v -7.573 h 53.571 z"
           style="fill:#79c9e8;fill-opacity:1;fill-rule:nonzero;stroke:none"
           id="path410" /><path
           d="m 391.191,106.599 h 11.574 v 7.573 h -11.574 z"
           style="fill:#49b4d6;fill-opacity:1;fill-rule:nonzero;stroke:none"
           id="path412" /><g
           id="g414"><g
             id="g416" /><g
             id="g428"><g
               clip-path="url(#clipPath420)"
               opacity="0.289993"
               id="g426"><g
                 transform="translate(397.8652,114.1748)"
                 id="g424"><path
                   d="m 0,0 h -6.616 l -5.315,12.89 v 0.009 l -2.878,6.998 -0.792,1.918 -1.292,3.122 -0.264,0.637 -2.877,6.998 -0.529,1.273 -4.287,10.423 0.803,1.958 c 0.92,2.231 4.081,2.231 5.001,0 l 5.099,-12.381 0.529,-1.273 2.877,-6.998 0.265,-0.637 1.292,-3.122 0.792,-1.918 2.878,-6.998 V 12.89 Z"
                   style="fill:#f98d2b;fill-opacity:1;fill-rule:nonzero;stroke:none"
                   id="path422" /></g></g></g></g><g
           id="g430"
           transform="translate(387.3242,139.7529)"><path
             d="m 0,0 h -22.012 l 2.878,6.998 h 16.257 z"
             style="fill:#0582c1;fill-opacity:1;fill-rule:nonzero;stroke:none"
             id="path432" /></g><g
           id="g434"
           transform="translate(392.5508,127.0791)"><path
             d="M 0,0 V -0.011 H -32.465 V 0 l 2.878,6.997 h 26.709 z"
             style="fill:#0582c1;fill-opacity:1;fill-rule:nonzero;stroke:none"
             id="path436" /></g><g
           id="g438"
           transform="translate(387.3242,139.7529)"><path
             d="m 0,0 h -6.616 l -2.877,6.998 h 6.616 z"
             style="fill:#00668e;fill-opacity:1;fill-rule:nonzero;stroke:none"
             id="path440" /></g><g
           id="g442"
           transform="translate(392.5508,127.0791)"><path
             d="M 0,0 V -0.011 H -6.616 V 0 l -2.878,6.997 h 6.616 z"
             style="fill:#00668e;fill-opacity:1;fill-rule:nonzero;stroke:none"
             id="path444" /></g><g
           id="g446"
           transform="translate(101.5581,279.792)"><path
             d="m 0,0 c 3.495,0 6.533,2.538 7.005,6 0.084,0.621 0.128,1.255 0.128,1.899 0,7.71 -6.249,13.959 -13.958,13.959 -0.317,0 -0.63,-0.014 -0.941,-0.035 -0.637,7.602 -7.005,13.574 -14.772,13.574 -8.19,0 -14.828,-6.639 -14.828,-14.828 0,-0.363 0.017,-0.722 0.043,-1.079 -2.324,1.298 -5.032,1.992 -7.913,1.86 C -52.685,21.009 -58.805,15.051 -59.332,7.614 -59.336,7.555 -59.34,7.496 -59.343,7.437 -59.583,3.392 -56.313,0 -52.261,0 Z"
             style="fill:#d7f0f9;fill-opacity:1;fill-rule:nonzero;stroke:none"
             id="path448" /></g><g
           id="g450"
           transform="translate(434.6924,268.8281)"><path
             d="m 0,0 c 11.038,0 11.649,16.612 0.624,17.147 -0.301,0.015 -0.603,0.022 -0.909,0.022 -1.968,0 -3.862,-0.311 -5.641,-0.882 -1.475,8.991 -9.278,15.853 -18.687,15.853 -9.616,0 -17.553,-7.168 -18.774,-16.451 -2.282,1.094 -4.838,1.707 -7.537,1.707 -1.508,0 -2.971,-0.191 -4.366,-0.55 C -64.942,14.36 -62.916,0 -52.95,0 Z"
             style="fill:#d7f0f9;fill-opacity:1;fill-rule:nonzero;stroke:none"
             id="path452" /></g><g
           id="g454"
           transform="translate(302.1348,350.6772)"><path
             d="m 0,0 c 11.035,0 11.646,16.607 0.624,17.143 -0.301,0.014 -0.603,0.022 -0.908,0.022 -1.968,0 -3.862,-0.312 -5.64,-0.883 -1.474,8.989 -9.275,15.848 -18.681,15.848 -9.614,0 -17.548,-7.165 -18.769,-16.445 -2.28,1.093 -4.836,1.706 -7.534,1.706 -1.508,0 -2.97,-0.191 -4.365,-0.551 C -64.922,14.356 -62.897,0 -52.934,0 Z"
             style="fill:#d7f0f9;fill-opacity:1;fill-rule:nonzero;stroke:none"
             id="path456" /></g><g
           id="g458"
           transform="translate(152.9009,346.437)"><path
             d="M 0,0 C 0,14.611 -11.844,26.455 -26.455,26.455 -41.065,26.455 -52.91,14.611 -52.91,0 c 0,-14.61 11.845,-26.455 26.455,-26.455 C -11.844,-26.455 0,-14.61 0,0"
             style="fill:#ffbf4d;fill-opacity:1;fill-rule:nonzero;stroke:none"
             id="path460" /></g><g
           id="g462"
           transform="translate(126.6636,372.8867)"><path
             d="m 0,0 c 7.195,-4.728 11.949,-12.867 11.949,-22.12 0,-14.61 -11.845,-26.454 -26.455,-26.454 -0.073,0 -0.145,0.005 -0.218,0.005 4.166,-2.738 9.149,-4.335 14.506,-4.335 14.611,0 26.455,11.844 26.455,26.454 C 26.237,-11.912 14.51,-0.118 0,0"
             style="fill:#ff9f50;fill-opacity:1;fill-rule:nonzero;stroke:none"
             id="path464" /></g></g></g><g
       id="g466"><g
         id="g468"
         clip-path="url(#clipPath472)"><g
           id="g474"
           transform="translate(260.1035,32.2842)"><path
             d="m 0,0 c -0.432,-0.442 -0.803,-0.931 -1.108,-1.453 l -0.465,0.241 c -0.067,0.298 -0.349,0.503 -0.658,0.467 -0.332,-0.039 -0.569,-0.339 -0.53,-0.67 0.039,-0.331 0.339,-0.568 0.67,-0.529 0.066,0.007 0.127,0.026 0.184,0.052 l 0.451,-0.234 C -1.707,-2.68 -1.889,-3.265 -1.995,-3.87 l 0.746,-0.131 c 0.23,1.306 0.85,2.506 1.792,3.472 z"
             style="fill:#1d262d;fill-opacity:1;fill-rule:nonzero;stroke:none"
             id="path476" /></g><g
           id="g478"
           transform="translate(265.5918,34.5869)"><path
             d="m 0,0 c -0.171,0 -0.341,-0.007 -0.51,-0.018 l -0.073,0.626 c 0.187,0.15 0.296,0.39 0.266,0.645 C -0.364,1.646 -0.72,1.928 -1.113,1.882 -1.506,1.835 -1.787,1.479 -1.741,1.086 -1.711,0.832 -1.552,0.625 -1.336,0.522 l 0.073,-0.624 c -0.714,-0.116 -1.403,-0.332 -2.059,-0.646 l 0.327,-0.684 c 0.933,0.448 1.941,0.673 2.995,0.673 0.496,0 0.993,-0.053 1.475,-0.157 l 0.161,0.741 C 1.101,-0.06 0.551,0 0,0"
             style="fill:#1d262d;fill-opacity:1;fill-rule:nonzero;stroke:none"
             id="path480" /></g><g
           id="g482"
           transform="translate(272.1943,32.0391)"><path
             d="M 0,0 C 0.331,0.041 0.566,0.342 0.525,0.673 0.484,1.004 0.184,1.238 -0.146,1.198 -0.456,1.16 -0.683,0.895 -0.677,0.59 L -1.093,0.227 c -0.418,0.429 -0.889,0.812 -1.408,1.138 l -0.403,-0.64 c 1.133,-0.715 2.02,-1.727 2.563,-2.926 l 0.691,0.312 c -0.251,0.555 -0.568,1.073 -0.943,1.545 L -0.19,0.008 C -0.13,-0.005 -0.065,-0.008 0,0"
             style="fill:#1d262d;fill-opacity:1;fill-rule:nonzero;stroke:none"
             id="path484" /></g><g
           id="g486"
           transform="translate(265.0439,24.3779)"><path
             d="m 0,0 c -0.386,-0.023 -0.774,-0.034 -1.157,-0.034 -0.88,0 -1.733,0.06 -2.478,0.179 -0.39,0.062 -0.846,0.155 -1.27,0.292 1.046,-1.861 3.069,-3.125 5.387,-3.125 2.856,0 5.263,1.916 5.951,4.503 C 5.751,1.366 4.927,0.99 3.974,0.692 2.795,0.325 1.42,0.086 0,0"
             style="fill:#1d262d;fill-opacity:1;fill-rule:nonzero;stroke:none"
             id="path488" /></g><g
           id="g490"
           transform="translate(268.1699,27.4639)"><path
             d="M 0,0 C -0.75,0 -1.36,0.61 -1.36,1.36 -1.36,2.11 -0.75,2.721 0,2.721 0.75,2.721 1.36,2.11 1.36,1.36 1.36,0.61 0.75,0 0,0 m -4.737,-0.908 c -1.021,0 -1.85,0.83 -1.85,1.849 0,1.021 0.829,1.85 1.85,1.85 1.019,0 1.849,-0.829 1.849,-1.85 0,-1.019 -0.83,-1.849 -1.849,-1.849 m 2.159,6.514 c -3.353,0 -6.08,-2.666 -6.08,-5.943 0,-0.426 0.047,-0.849 0.137,-1.262 0.674,-0.482 2.707,-0.889 5.348,-0.73 2.879,0.173 5.297,0.957 6.672,2.158 C 3.493,0.024 3.479,0.22 3.454,0.411 3.073,3.373 0.48,5.606 -2.578,5.606"
             style="fill:#1d262d;fill-opacity:1;fill-rule:nonzero;stroke:none"
             id="path492" /></g><g
           id="g494"
           transform="translate(281.5947,31.2031)"><path
             d="M 0,0 C -0.294,0.116 -0.805,0.309 -1.382,0.237 -1.933,0.169 -2.226,-0.103 -2.226,-0.77 v -0.865 h 2.228 v -1.718 h -2.228 v -5.454 h -1.931 v 5.454 h -1.34 v 1.718 h 1.34 v 0.888 c 0,1.681 0.895,2.783 2.568,2.783 0.643,0 1.157,-0.122 1.59,-0.308 z"
             style="fill:#1d262d;fill-opacity:1;fill-rule:nonzero;stroke:none"
             id="path496" /></g><g
           id="g498"
           transform="translate(286.2979,27.8711)"><path
             d="m 0,0 c -0.177,0.03 -0.357,0.047 -0.526,0.047 -0.896,0 -1.51,-0.548 -1.51,-1.614 v -3.908 h -1.932 v 7.172 h 1.872 V 0.912 c 0.452,0.674 1.141,0.978 2.022,0.978 0.414,0 0.847,-0.128 1.094,-0.337 z"
             style="fill:#1d262d;fill-opacity:1;fill-rule:nonzero;stroke:none"
             id="path500" /></g><g
           id="g502"
           transform="translate(288.8506,26.6592)"><path
             d="M 0,0 H 3.175 C 2.998,0.918 2.442,1.436 1.613,1.436 0.703,1.436 0.171,0.889 0,0 m 5.114,-0.666 c 0,-0.222 -0.014,-0.488 -0.037,-0.651 h -5.084 c 0.207,-1.037 0.933,-1.488 1.843,-1.488 0.621,0 1.295,0.251 1.812,0.688 L 4.781,-3.36 c -0.814,-0.747 -1.85,-1.088 -3.056,-1.088 -2.199,0 -3.723,1.495 -3.723,3.753 0,2.257 1.48,3.797 3.626,3.797 2.065,0 3.479,-1.533 3.486,-3.768"
             style="fill:#1d262d;fill-opacity:1;fill-rule:nonzero;stroke:none"
             id="path504" /></g><g
           id="g506"
           transform="translate(296.5039,26.6592)"><path
             d="M 0,0 H 3.175 C 2.998,0.918 2.442,1.436 1.613,1.436 0.703,1.436 0.17,0.889 0,0 m 5.114,-0.666 c 0,-0.222 -0.014,-0.488 -0.037,-0.651 h -5.084 c 0.207,-1.037 0.932,-1.488 1.843,-1.488 0.621,0 1.295,0.251 1.813,0.688 L 4.781,-3.36 c -0.814,-0.747 -1.85,-1.088 -3.056,-1.088 -2.199,0 -3.723,1.495 -3.723,3.753 0,2.257 1.48,3.797 3.626,3.797 2.065,0 3.479,-1.533 3.486,-3.768"
             style="fill:#1d262d;fill-opacity:1;fill-rule:nonzero;stroke:none"
             id="path508" /></g><g
           id="g510"
           transform="translate(304.2871,25.9854)"><path
             d="m 0,0 c 0,-1.132 0.747,-1.976 1.843,-1.976 1.139,0 1.85,0.881 1.85,1.976 0,1.096 -0.711,1.977 -1.85,1.977 C 0.747,1.977 0,1.133 0,0 m 5.677,0 c 0,-2.153 -1.495,-3.774 -3.471,-3.774 -0.963,0 -1.644,0.378 -2.109,0.932 V -6.55 H -1.828 V 3.583 H 0.06 V 2.791 C 0.525,3.375 1.214,3.775 2.198,3.775 4.182,3.775 5.677,2.154 5.677,0"
             style="fill:#1d262d;fill-opacity:1;fill-rule:nonzero;stroke:none"
             id="path512" /></g><path
           d="m 312.809,22.396 h -1.932 v 7.172 h 1.932 z m 0.258,9.518 c 0,-0.695 -0.54,-1.228 -1.236,-1.228 -0.695,0 -1.228,0.533 -1.228,1.228 0,0.696 0.533,1.243 1.228,1.243 0.696,0 1.236,-0.547 1.236,-1.243"
           style="fill:#1d262d;fill-opacity:1;fill-rule:nonzero;stroke:none"
           id="path514" /><g
           id="g516"
           transform="translate(316.0322,27.0146)"><path
             d="M 0,0 2.701,2.554 H 5.07 L 1.591,-0.821 5.092,-4.618 H 2.716 L 0,-1.717 V -4.618 H -1.932 V 6.039 H 0 Z"
             style="fill:#1d262d;fill-opacity:1;fill-rule:nonzero;stroke:none"
             id="path518" /></g><g
           id="g520"
           transform="translate(184.4126,24.3799)"><path
             d="m 0,0 v 3.208 c -0.396,0.615 -1.245,1.143 -2.124,1.143 -1.421,0 -2.271,-1.172 -2.271,-2.74 0,-1.567 0.85,-2.724 2.271,-2.724 0.879,0 1.728,0.498 2.124,1.113 m 0,-1.919 v 1.055 c -0.527,-0.718 -1.392,-1.231 -2.388,-1.231 -1.845,0 -3.149,1.407 -3.149,3.706 0,2.256 1.289,3.721 3.149,3.721 0.952,0 1.817,-0.469 2.388,-1.245 v 3.765 h 1.099 v -9.771 z"
             style="fill:#1d262d;fill-opacity:1;fill-rule:nonzero;stroke:none"
             id="path522" /></g><g
           id="g524"
           transform="translate(190.4033,28.8037)"><path
             d="M 0,0 C -1.509,0 -2.256,-1.274 -2.314,-2.358 H 2.329 C 2.314,-1.304 1.611,0 0,0 m -3.471,-2.798 c 0,2.051 1.464,3.706 3.486,3.706 2.138,0 3.398,-1.67 3.398,-3.794 v -0.278 h -5.727 c 0.087,-1.333 1.025,-2.446 2.548,-2.446 0.806,0 1.626,0.322 2.183,0.893 L 2.944,-5.435 C 2.241,-6.138 1.289,-6.519 0.132,-6.519 c -2.095,0 -3.603,1.509 -3.603,3.721"
             style="fill:#1d262d;fill-opacity:1;fill-rule:nonzero;stroke:none"
             id="path526" /></g><g
           id="g528"
           transform="translate(194.6069,23.3984)"><path
             d="M 0,0 0.571,0.791 C 1.04,0.249 1.934,-0.22 2.9,-0.22 c 1.084,0 1.67,0.513 1.67,1.216 0,1.714 -4.38,0.659 -4.38,3.281 0,1.099 0.953,2.036 2.637,2.036 1.201,0 2.051,-0.454 2.622,-1.025 L 4.936,4.526 C 4.512,5.039 3.735,5.42 2.827,5.42 1.86,5.42 1.26,4.937 1.26,4.307 1.26,2.754 5.639,3.779 5.639,1.025 5.639,-0.161 4.687,-1.113 2.856,-1.113 1.699,-1.113 0.718,-0.762 0,0"
             style="fill:#1d262d;fill-opacity:1;fill-rule:nonzero;stroke:none"
             id="path530" /></g><path
           d="m 201.667,29.536 h 1.099 v -7.075 h -1.099 z m -0.19,1.743 c 0,0.41 0.337,0.747 0.732,0.747 0.411,0 0.747,-0.337 0.747,-0.747 0,-0.41 -0.336,-0.732 -0.747,-0.732 -0.395,0 -0.732,0.322 -0.732,0.732"
           style="fill:#1d262d;fill-opacity:1;fill-rule:nonzero;stroke:none"
           id="path532" /><g
           id="g534"
           transform="translate(209.7085,24.4971)"><path
             d="m 0,0 v 3.091 c -0.381,0.615 -1.23,1.142 -2.109,1.142 -1.421,0 -2.27,-1.128 -2.27,-2.695 0,-1.553 0.849,-2.695 2.27,-2.695 0.879,0 1.728,0.542 2.109,1.157 m -5.126,-3.853 0.556,0.821 c 0.586,-0.703 1.289,-0.967 2.3,-0.967 1.172,0 2.27,0.571 2.27,2.124 v 1.011 c -0.512,-0.718 -1.376,-1.26 -2.373,-1.26 -1.845,0 -3.149,1.377 -3.149,3.662 0,2.271 1.289,3.677 3.149,3.677 0.952,0 1.802,-0.469 2.373,-1.245 v 1.069 h 1.099 v -6.87 c 0,-2.344 -1.641,-3.076 -3.369,-3.076 -1.201,0 -2.022,0.234 -2.856,1.054"
             style="fill:#1d262d;fill-opacity:1;fill-rule:nonzero;stroke:none"
             id="path536" /></g><g
           id="g538"
           transform="translate(217.4131,22.4609)"><path
             d="M 0,0 V 4.629 C 0,5.874 -0.629,6.27 -1.582,6.27 -2.446,6.27 -3.267,5.742 -3.676,5.171 V 0 h -1.099 v 7.075 h 1.099 V 6.05 c 0.498,0.586 1.464,1.201 2.519,1.201 1.479,0 2.256,-0.747 2.256,-2.285 L 1.099,0 Z"
             style="fill:#1d262d;fill-opacity:1;fill-rule:nonzero;stroke:none"
             id="path540" /></g><g
           id="g542"
           transform="translate(223.4043,28.8037)"><path
             d="M 0,0 C -1.509,0 -2.256,-1.274 -2.314,-2.358 H 2.329 C 2.314,-1.304 1.611,0 0,0 m -3.472,-2.798 c 0,2.051 1.465,3.706 3.487,3.706 2.138,0 3.398,-1.67 3.398,-3.794 v -0.278 h -5.727 c 0.087,-1.333 1.025,-2.446 2.548,-2.446 0.806,0 1.626,0.322 2.183,0.893 L 2.944,-5.435 C 2.241,-6.138 1.289,-6.519 0.132,-6.519 c -2.095,0 -3.604,1.509 -3.604,3.721"
             style="fill:#1d262d;fill-opacity:1;fill-rule:nonzero;stroke:none"
             id="path544" /></g><g
           id="g546"
           transform="translate(233.3501,24.3799)"><path
             d="m 0,0 v 3.208 c -0.396,0.615 -1.245,1.143 -2.124,1.143 -1.421,0 -2.271,-1.172 -2.271,-2.74 0,-1.567 0.85,-2.724 2.271,-2.724 0.879,0 1.728,0.498 2.124,1.113 m 0,-1.919 v 1.055 c -0.527,-0.718 -1.392,-1.231 -2.388,-1.231 -1.845,0 -3.149,1.407 -3.149,3.706 0,2.256 1.289,3.721 3.149,3.721 0.952,0 1.817,-0.469 2.388,-1.245 v 3.765 h 1.099 v -9.771 z"
             style="fill:#1d262d;fill-opacity:1;fill-rule:nonzero;stroke:none"
             id="path548" /></g><g
           id="g550"
           transform="translate(242.8999,23.2666)"><path
             d="M 0,0 C 1.436,0 2.285,1.157 2.285,2.725 2.285,4.292 1.436,5.464 0,5.464 -0.864,5.464 -1.729,4.937 -2.109,4.321 V 1.113 C -1.729,0.498 -0.864,0 0,0 m -3.208,-0.806 v 9.771 h 1.099 V 5.2 c 0.571,0.777 1.421,1.245 2.387,1.245 1.846,0 3.15,-1.465 3.15,-3.72 0,-2.3 -1.304,-3.706 -3.15,-3.706 -0.996,0 -1.86,0.512 -2.387,1.23 v -1.055 z"
             style="fill:#1d262d;fill-opacity:1;fill-rule:nonzero;stroke:none"
             id="path552" /></g><g
           id="g554"
           transform="translate(247.5283,20.6885)"><path
             d="m 0,0 c 0.161,-0.073 0.425,-0.117 0.601,-0.117 0.483,0 0.805,0.161 1.055,0.747 l 0.469,1.069 -2.96,7.149 H 0.352 L 2.71,3.047 5.054,8.848 H 6.255 L 2.71,0.337 C 2.285,-0.688 1.567,-1.084 0.63,-1.099 c -0.234,0 -0.601,0.044 -0.805,0.103 z"
             style="fill:#1d262d;fill-opacity:1;fill-rule:nonzero;stroke:none"
             id="path556" /></g></g></g></g></svg>
